<?xml version="1.0" encoding="UTF-8" standalone="no"?>
<!-- Created with Inkscape (http://www.inkscape.org/) -->

<svg
   width="297mm"
   height="210mm"
   viewBox="0 0 297 210"
   version="1.1"
   id="svg1"
   inkscape:version="1.3.2 (091e20ef0f, 2023-11-25)"
   sodipodi:docname="logo.inkscape.svg"
   xmlns:inkscape="http://www.inkscape.org/namespaces/inkscape"
   xmlns:sodipodi="http://sodipodi.sourceforge.net/DTD/sodipodi-0.dtd"
   xmlns="http://www.w3.org/2000/svg"
   xmlns:svg="http://www.w3.org/2000/svg">
  <sodipodi:namedview
     id="namedview1"
     pagecolor="#ffffff"
     bordercolor="#000000"
     borderopacity="0.25"
     inkscape:showpageshadow="2"
     inkscape:pageopacity="0.0"
     inkscape:pagecheckerboard="0"
     inkscape:deskcolor="#d1d1d1"
     inkscape:document-units="mm"
     inkscape:zoom="0.75575672"
     inkscape:cx="360.56576"
     inkscape:cy="377.76707"
     inkscape:window-width="1920"
     inkscape:window-height="1011"
     inkscape:window-x="0"
     inkscape:window-y="0"
     inkscape:window-maximized="1"
     inkscape:current-layer="g14" />
  <defs
     id="defs1">
    <rect
       x="122.45966"
       y="254.72939"
       width="515.83722"
       height="178.28606"
       id="rect3" />
    <rect
       x="175.35558"
       y="309.11234"
       width="528.03851"
       height="180.0182"
       id="rect1" />
  </defs>
  <g
     inkscape:label="Layer 1"
     inkscape:groupmode="layer"
     id="layer1">
    <g
       id="g13" />
    <text
       xml:space="preserve"
       transform="scale(0.26458333)"
       id="text3"
       style="font-style:italic;font-variant:normal;font-weight:900;font-stretch:normal;font-size:53.3333px;font-family:'SauceCodePro Nerd Font Mono';-inkscape-font-specification:'SauceCodePro Nerd Font Mono Heavy Italic';letter-spacing:0px;word-spacing:0px;white-space:pre;shape-inside:url(#rect3);fill:#000000" />
    <g
       id="g14">
      <path
         id="path31"
         style="font-style:italic;font-weight:900;font-size:96px;font-family:'SauceCodePro Nerd Font Mono';-inkscape-font-specification:'SauceCodePro Nerd Font Mono Heavy Italic';letter-spacing:0px;word-spacing:0px;white-space:pre;fill:#f06523;stroke-width:0.264583"
         d="m 142.21049,105.20185 q -1.3462,0 -2.413,-0.4064 -1.0414,-0.4064 -1.8034,-1.143 -0.7366,-0.7366 -1.143,-1.778 -0.381,-1.0668 -0.381,-2.362199 0,-1.7272 0.6096,-3.1242 0.635,-1.4224 1.651,-2.413 1.0414,-0.9906 2.3876,-1.524 1.3462,-0.5588 2.7686,-0.5588 1.3208,0 2.3876,0.4064 1.0668,0.4064 1.8034,1.143 0.762,0.7366 1.143,1.8034 0.4064,1.0414 0.4064,2.3368 0,1.7272 -0.635,3.149599 -0.6096,1.397 -1.651,2.3876 -1.016,0.9906 -2.3622,1.5494 -1.3462,0.5334 -2.7686,0.5334 z m 0.3048,-3.302 q 0.5588,0 1.0922,-0.3048 0.5588,-0.3048 0.9652,-0.8382 0.4318,-0.5588 0.6858,-1.320799 0.254,-0.7874 0.254,-1.7526 0,-1.2192 -0.5334,-1.8542 -0.508,-0.635 -1.397,-0.635 -0.5842,0 -1.1176,0.3048 -0.5334,0.3048 -0.9652,0.8636 -0.4064,0.5334 -0.6604,1.3208 -0.254,0.7874 -0.254,1.7272 0,1.219199 0.508,1.854199 0.5334,0.635 1.4224,0.635 z"
         inkscape:export-filename="logo.png"
         inkscape:export-xdpi="600"
         inkscape:export-ydpi="600" />
      <path
         id="path29"
         style="font-style:italic;font-weight:900;font-size:96px;font-family:'SauceCodePro Nerd Font Mono';-inkscape-font-specification:'SauceCodePro Nerd Font Mono Heavy Italic';letter-spacing:0px;word-spacing:0px;white-space:pre;fill:#f06523;stroke-width:0.264583"
         d="m 129.31689,105.20185 q -1.9558,0 -3.1242,-1.016 -1.143,-1.0414 -1.143,-2.794 0,-0.381 0.0508,-0.762 0.0762,-0.381 0.2032,-0.812799 l 1.1684,-4.4704 h -4.0132 l 0.6604,-3.1496 h 8.0772 l -1.8796,7.7724 q -0.0508,0.152399 -0.0762,0.304799 -0.0254,0.1524 -0.0254,0.3048 0,0.7112 0.381,1.016 0.381,0.3048 0.9906,0.3048 0.4318,0 0.8382,-0.1016 0.4064,-0.127 0.9906,-0.3556 l 0.8128,3.048 q -0.8382,0.3556 -1.778,0.5334 -0.9144,0.1778 -2.1336,0.1778 z m 0.127,-14.782799 q -0.4826,0 -0.9398,-0.127 -0.4318,-0.1524 -0.7874,-0.4064 -0.3302,-0.2794 -0.5588,-0.6858 -0.2032,-0.4318 -0.2032,-0.9906 0,-0.5334 0.2032,-1.016 0.2286,-0.4826 0.6096,-0.8382 0.381,-0.381 0.889,-0.5842 0.5334,-0.2286 1.143,-0.2286 1.0922,0 1.8034,0.5588 0.7112,0.5588 0.7112,1.651 0,0.5842 -0.2286,1.0668 -0.2286,0.4826 -0.6096,0.8382 -0.381,0.3556 -0.9144,0.5588 -0.508,0.2032 -1.1176,0.2032 z" />
      <path
         style="font-style:italic;font-weight:900;font-size:96px;font-family:'SauceCodePro Nerd Font Mono';-inkscape-font-specification:'SauceCodePro Nerd Font Mono Heavy Italic';letter-spacing:0px;word-spacing:0px;white-space:pre;fill:#f06523;stroke-width:0.264583"
         d="m 114.99814,105.20185 q -0.889,0 -1.651,-0.3048 -0.7366,-0.2794 -1.27,-0.8128 -0.5334,-0.5334 -0.8382,-1.3208 -0.3048,-0.7874 -0.3048,-1.778 0,-0.381 0.0254,-0.7874 0.0508,-0.431799 0.1778,-0.888999 l 2.0828,-8.9408 h -3.4036 l 0.6604,-3.1496 h 7.4168 l -2.8448,12.6492 q -0.0508,0.152399 -0.0762,0.355599 -0.0254,0.2032 -0.0254,0.508 0,0.6096 0.381,0.889 0.4064,0.2794 0.9398,0.2794 0.5588,0 0.9652,-0.1016 0.4064,-0.127 1.016,-0.4064 l 0.8128,2.9972 q -1.0414,0.4572 -2.0066,0.635 -0.9398,0.1778 -2.0574,0.1778 z"
         id="path28" />
      <path
         id="path26"
         style="font-style:italic;font-weight:900;font-size:96px;font-family:'SauceCodePro Nerd Font Mono';-inkscape-font-specification:'SauceCodePro Nerd Font Mono Heavy Italic';letter-spacing:0px;word-spacing:0px;white-space:pre;fill:#f06523;stroke-width:0.264583"
         d="m 101.6034,105.20185 q -1.955777,0 -3.124177,-1.016 -1.143,-1.0414 -1.143,-2.794 0,-0.381 0.0508,-0.762 0.0762,-0.381 0.2032,-0.812799 l 1.1684,-4.4704 h -4.013201 l 0.6604,-3.1496 H 103.483 l -1.8796,7.7724 q -0.0508,0.152399 -0.0762,0.304799 -0.0254,0.1524 -0.0254,0.3048 0,0.7112 0.381,1.016 0.381,0.3048 0.9906,0.3048 0.4318,0 0.8382,-0.1016 0.4064,-0.127 0.9906,-0.3556 l 0.8128,3.048 q -0.8382,0.3556 -1.778,0.5334 -0.9144,0.1778 -2.1336,0.1778 z m 0.127,-14.782799 q -0.4826,0 -0.93979,-0.127 -0.43179,-0.1524 -0.78739,-0.4064 -0.330197,-0.2794 -0.558797,-0.6858 -0.2032,-0.4318 -0.2032,-0.9906 0,-0.5334 0.2032,-1.016 0.2286,-0.4826 0.609597,-0.8382 0.38099,-0.381 0.88898,-0.5842 0.5334,-0.2286 1.143,-0.2286 1.0922,0 1.8034,0.5588 0.7112,0.5588 0.7112,1.651 0,0.5842 -0.2286,1.0668 -0.2286,0.4826 -0.6096,0.8382 -0.381,0.3556 -0.9144,0.5588 -0.508,0.2032 -1.1176,0.2032 z" />
      <path
         id="path24"
         style="font-style:italic;font-weight:900;font-size:96px;font-family:'SauceCodePro Nerd Font Mono';-inkscape-font-specification:'SauceCodePro Nerd Font Mono Heavy Italic';letter-spacing:0px;word-spacing:0px;white-space:pre;fill:#f06523;stroke-width:0.264583"
         d="m 84.769382,105.20185 q -1.0414,0 -1.9558,-0.4064 -0.889,-0.4318 -1.3462,-1.1684 h -0.0508 l -0.5588,1.27 h -3.3528 l 3.556,-17.678399 h 4.064 l -0.762,3.7084 -0.762,2.6924 h 0.0508 q 0.8128,-0.8382 1.8288,-1.27 1.016,-0.4572 1.9304,-0.4572 1.9812,0 3.048,1.27 1.0668,1.27 1.0668,3.6576 0,1.7526 -0.5588,3.276599 -0.5588,1.524 -1.4986,2.667 -0.9398,1.143 -2.159,1.8034 -1.2192,0.635 -2.54,0.635 z m -0.6096,-3.302 q 0.6096,0 1.1684,-0.3302 0.5588,-0.3302 0.9906,-0.9398 0.4572,-0.6096 0.7112,-1.447799 0.2794,-0.8382 0.2794,-1.8542 0,-1.143 -0.4318,-1.6256 -0.4318,-0.508 -1.0922,-0.508 -0.6096,0 -1.2954,0.4318 -0.6858,0.4318 -1.3462,1.4986 l -0.762,3.809999 q 0.2794,0.508 0.762,0.7366 0.4826,0.2286 1.016,0.2286 z" />
      <path
         style="font-style:italic;font-weight:900;font-size:96px;font-family:'SauceCodePro Nerd Font Mono';-inkscape-font-specification:'SauceCodePro Nerd Font Mono Heavy Italic';letter-spacing:0px;word-spacing:0px;white-space:pre;fill:#f06523;stroke-width:0.264583"
         d="m 64.059907,105.20185 q -1.5748,0 -2.4384,-0.8128 -0.8636,-0.8382 -0.8636,-2.4892 0,-0.8636 0.2032,-1.8288 l 1.5748,-7.873999 h 4.064 l -1.4732,7.366 q -0.0762,0.3556 -0.1524,0.634999 -0.0508,0.254 -0.0508,0.4826 0,0.5334 0.2794,0.8128 0.2794,0.254 0.7874,0.254 0.635,0 1.397,-0.4826 0.762,-0.508 1.4986,-1.498599 l 1.4732,-7.5692 h 4.064 l -2.4892,12.699999 h -3.302 l 0.1016,-2.032 h -0.1016 q -0.4318,0.4318 -0.9906,0.8636 -0.5334,0.4064 -1.143,0.7366 -0.5842,0.3302 -1.2192,0.5334 -0.6096,0.2032 -1.2192,0.2032 z"
         id="path23" />
      <path
         style="font-style:italic;font-weight:900;font-size:96px;font-family:'SauceCodePro Nerd Font Mono';-inkscape-font-specification:'SauceCodePro Nerd Font Mono Heavy Italic';letter-spacing:0px;word-spacing:0px;white-space:pre;fill:#f06523;stroke-width:0.264583"
         d="m 44.95601,104.89705 2.4892,-12.725399 3.302,0.0254 -0.3048,3.302 h 0.1016 q 0.9906,-1.7272 2.3368,-2.667 1.3716,-0.9398 2.7432,-0.9398 0.8382,0 1.4732,0.1524 0.6604,0.127 1.016,0.3556 l -1.4224,3.5052 q -0.8128,-0.4064 -1.8796,-0.4064 -1.1938,0 -2.4384,1.1176 -1.2446,1.0922 -2.286,3.048 l -1.0668,5.232399 z"
         id="text1" />
    </g>
  </g>
</svg>
